#N canvas 380 129 450 300 10;
#X obj 151 140 line;
#X msg 209 9 127 2500;
#X obj 238 40 trigger list bang;
#X obj 304 87 delay 2500;
#X floatatom 196 169 5 0 0 0 - - -;
#X obj 171 200 hsl 128 15 0 127 0 0 empty empty empty -2 -8 0 10 -262144
-1 -1 10000 1;
#X msg 298 142 100 1500;
#X msg 132 35 0;
#X connect 0 0 4 0;
#X connect 0 0 5 0;
#X connect 1 0 2 0;
#X connect 2 0 0 0;
#X connect 2 1 3 0;
#X connect 3 0 6 0;
#X connect 6 0 0 0;
#X connect 7 0 0 0;
