#N canvas 596 -2 450 400 10;
#X obj 80 8 tgl 15 0 empty empty empty 17 7 0 10 -262144 -1 -1 1 1
;
#X msg 263 88 bang;
#X floatatom 322 261 5 0 0 0 - - -;
#X obj 321 172 + 1;
#X obj 170 58 metro 250;
#X obj 211 173 float;
#X msg 192 10 2;
#X msg 252 7 250;
#X floatatom 46 79 5 0 0 0 - - -;
#X obj 187 222 mod 8;
#X floatatom 257 264 5 0 0 0 - - -;
#X obj 219 320 hradio 15 1 0 8 empty empty empty 0 -8 0 10 -4034 -1
-1 2;
#X connect 0 0 4 0;
#X connect 0 0 8 0;
#X connect 1 0 5 0;
#X connect 3 0 2 0;
#X connect 3 0 5 1;
#X connect 3 0 9 0;
#X connect 4 0 5 0;
#X connect 5 0 3 0;
#X connect 6 0 4 1;
#X connect 7 0 4 1;
#X connect 9 0 10 0;
#X connect 9 0 11 0;
