#N canvas 45 27 1280 734 16;
#X obj 422 134 table toast;
#X obj 343 419 tabread~ toast;
#X obj 344 365 *~ 100;
#X obj 345 303 phasor~;
#X obj 345 240 mtof;
#X obj 348 206 hsl 128 15 0 127 0 0 empty empty empty -2 -8 0 10 -262144
-1 -1 7600 1;
#X obj 345 564 dac~;
#X obj 344 470 *~ 0.1;
#X connect 1 0 7 0;
#X connect 2 0 1 0;
#X connect 3 0 2 0;
#X connect 4 0 3 0;
#X connect 5 0 4 0;
#X connect 7 0 6 0;
