#N canvas 84 21 1280 734 16;
#X obj 385 549 dac~;
#X obj 428 237 line~;
#X obj 428 -5 vsl 15 128 0 127 0 0 empty empty empty 0 -9 0 10 -4034
-1 -1 400 1;
#X obj 402 434 *~;
#X obj 428 176 pack float 50;
#X obj 428 302 /~ 1024;
#X obj 260 289 osc~ 392;
#X obj 281 12 vsl 15 128 0 127 0 0 empty empty empty 0 -9 0 10 -159808
-1 -1 6100 1;
#X floatatom 334 149 5 0 0 0 - - -;
#X obj 274 172 mtof;
#X floatatom 340 247 5 0 0 0 - - -;
#X connect 1 0 5 0;
#X connect 2 0 4 0;
#X connect 3 0 0 0;
#X connect 3 0 0 1;
#X connect 4 0 1 0;
#X connect 5 0 3 1;
#X connect 6 0 3 0;
#X connect 7 0 8 0;
#X connect 7 0 9 0;
#X connect 9 0 6 0;
#X connect 9 0 10 0;
