#N canvas 84 21 1280 734 16;
#X obj 37 41 adc~;
#X obj 385 549 dac~;
#X obj 428 237 line~;
#X obj 428 -8 vsl 15 128 0 127 0 0 empty empty empty 0 -9 0 10 -262144
-1 -1 2600 1;
#X obj 402 434 *~;
#X obj 428 176 pack float 50;
#X obj 44 89 *~;
#X obj 41 -9 line~;
#X obj 428 302 /~ 1024;
#X obj 281 210 osc~ 392;
#X connect 2 0 8 0;
#X connect 3 0 5 0;
#X connect 4 0 1 0;
#X connect 4 0 1 1;
#X connect 5 0 2 0;
#X connect 8 0 4 1;
#X connect 9 0 4 0;
