#N canvas 119 88 450 300 10;
#X floatatom 71 62 5 0 0 0 - - -;
#X floatatom 346 30 5 0 0 0 - - -;
#X floatatom 210 264 5 0 0 0 - - -;
#X obj 236 175 +;
#X obj 243 102 trigger bang float;
#X connect 0 0 3 0;
#X connect 1 0 4 0;
#X connect 3 0 2 0;
#X connect 4 0 3 0;
#X connect 4 1 3 1;
